<svg id="adf2731f-74da-43d2-9571-306e94369c0d" data-name="Layer 1" xmlns="http://www.w3.org/2000/svg" viewBox="0 0 785.05 845.88"><defs><style>.b39f1fa3-6eb5-4ab6-8b5e-f7dba1c7febb,.b61f9c56-5ba5-46ef-ac5f-74aad7c5e5ac{fill:#ffc500;}.b39f1fa3-6eb5-4ab6-8b5e-f7dba1c7febb,.eac19507-27f8-4702-af9e-51dae83ed413,.f14ef59e-13b3-494f-a5c1-c2894e603c21{opacity:0.2;}.b39f1fa3-6eb5-4ab6-8b5e-f7dba1c7febb,.b61f9c56-5ba5-46ef-ac5f-74aad7c5e5ac,.eac19507-27f8-4702-af9e-51dae83ed413{isolation:isolate;}.eac19507-27f8-4702-af9e-51dae83ed413,.fd23b097-a659-4aee-8c96-1aa336971e4a{fill:#263238;}.b8f07d92-f8ba-4191-a20a-fab598015986,.bbead4e0-6244-46f5-9d98-cfbd42ec8e63{fill:none;stroke:#263238;}.b8f07d92-f8ba-4191-a20a-fab598015986{stroke-miterlimit:10;}.bbead4e0-6244-46f5-9d98-cfbd42ec8e63{stroke-linecap:round;stroke-linejoin:round;}.b61f9c56-5ba5-46ef-ac5f-74aad7c5e5ac{opacity:0.7;}</style></defs><g id="e6c80dc8-7311-49f9-8a58-b416af9cf834" data-name="e83bd5e9-5a79-42c8-b29b-9e3048f1a5c0"><path class="b39f1fa3-6eb5-4ab6-8b5e-f7dba1c7febb" d="M1310.53,193.62c45.26,56.75,59.54,129.28,61.13,195.49s-10.31,126.12-41.28,171.06c-31,45.72-80.17,76.46-140.46,112.72s-130.19,78-181,61.48c-50-16.56-81-91.44-117.49-160-37.31-68.57-81-131.65-73.83-187.6,6.35-56.77,63.5-107.21,122.22-161.59,57.94-54.34,118.28-112.72,185-120.62C1192.25,95.92,1266.08,136.87,1310.53,193.62Z" transform="translate(-586.75 -103.39)"/><g class="f14ef59e-13b3-494f-a5c1-c2894e603c21"><path class="fd23b097-a659-4aee-8c96-1aa336971e4a" d="M882,573.56a35.74,35.74,0,1,0,36,35.74,35.87,35.87,0,0,0-36-35.74Zm0,48.67a12.94,12.94,0,1,1,13-12.93,13,13,0,0,1-13,12.93Z" transform="translate(-586.75 -103.39)"/><path class="fd23b097-a659-4aee-8c96-1aa336971e4a" d="M882,517.28a22.06,22.06,0,1,0,22.22,22.06h0A22.12,22.12,0,0,0,882,517.28Zm0,30a8,8,0,1,1,8-8v0a8,8,0,0,1-8,8Z" transform="translate(-586.75 -103.39)"/><path class="b8f07d92-f8ba-4191-a20a-fab598015986" d="M843,506h78.09a7.15,7.15,0,0,1,7.18,7.13V648.29a7.15,7.15,0,0,1-7.18,7.14H843a7.16,7.16,0,0,1-7.19-7.14V513.11A7.16,7.16,0,0,1,843,506Z" transform="translate(-586.75 -103.39)"/></g><g class="f14ef59e-13b3-494f-a5c1-c2894e603c21"><path class="fd23b097-a659-4aee-8c96-1aa336971e4a" d="M1321.15,573.56a35.74,35.74,0,1,0,35.92,35.81v-.07A35.87,35.87,0,0,0,1321.15,573.56Zm0,48.67a12.94,12.94,0,1,1,13-12.93,13,13,0,0,1-13,12.93Z" transform="translate(-586.75 -103.39)"/><path class="fd23b097-a659-4aee-8c96-1aa336971e4a" d="M1321.15,517.28a22.06,22.06,0,1,0,22.2,22.08v0A22.14,22.14,0,0,0,1321.15,517.28Zm0,30a8,8,0,1,1,8-8v0a8,8,0,0,1-8,8Z" transform="translate(-586.75 -103.39)"/><path class="b8f07d92-f8ba-4191-a20a-fab598015986" d="M1282.09,506h78.09a7.16,7.16,0,0,1,7.19,7.13V648.29a7.16,7.16,0,0,1-7.19,7.14h-78.09a7.15,7.15,0,0,1-7.18-7.14V513.11A7.15,7.15,0,0,1,1282.09,506Z" transform="translate(-586.75 -103.39)"/></g><line class="bbead4e0-6244-46f5-9d98-cfbd42ec8e63" x1="380.48" y1="56.2" x2="380.48" y2="79.53"/><line class="bbead4e0-6244-46f5-9d98-cfbd42ec8e63" x1="392.22" y1="67.86" x2="368.73" y2="67.86"/><line class="bbead4e0-6244-46f5-9d98-cfbd42ec8e63" x1="329.07" y1="199.11" x2="329.07" y2="215.16"/><line class="bbead4e0-6244-46f5-9d98-cfbd42ec8e63" x1="337.15" y1="207.14" x2="321.01" y2="207.14"/><line class="bbead4e0-6244-46f5-9d98-cfbd42ec8e63" x1="684.51" y1="44.51" x2="684.51" y2="60.56"/><line class="bbead4e0-6244-46f5-9d98-cfbd42ec8e63" x1="692.57" y1="52.54" x2="676.43" y2="52.54"/><line class="bbead4e0-6244-46f5-9d98-cfbd42ec8e63" x1="587.57" y1="419.32" x2="587.57" y2="435.37"/><line class="bbead4e0-6244-46f5-9d98-cfbd42ec8e63" x1="595.65" y1="427.35" x2="579.49" y2="427.35"/><line class="bbead4e0-6244-46f5-9d98-cfbd42ec8e63" x1="666.14" y1="185.98" x2="666.14" y2="204.95"/><line class="bbead4e0-6244-46f5-9d98-cfbd42ec8e63" x1="675.68" y1="195.47" x2="656.6" y2="195.47"/><line class="bbead4e0-6244-46f5-9d98-cfbd42ec8e63" x1="713.88" y1="53.28" x2="713.88" y2="72.23"/><line class="bbead4e0-6244-46f5-9d98-cfbd42ec8e63" x1="723.42" y1="62.75" x2="704.32" y2="62.75"/><path class="bbead4e0-6244-46f5-9d98-cfbd42ec8e63" d="M880.58,244.9a6.62,6.62,0,1,1-6.64-6.55h0a6.57,6.57,0,0,1,6.62,6.53Z" transform="translate(-586.75 -103.39)"/><path class="bbead4e0-6244-46f5-9d98-cfbd42ec8e63" d="M1224.25,495a6.62,6.62,0,1,1-6.64-6.56h0a6.59,6.59,0,0,1,6.62,6.54Z" transform="translate(-586.75 -103.39)"/><path class="bbead4e0-6244-46f5-9d98-cfbd42ec8e63" d="M1331.53,277.05a6.61,6.61,0,1,1-6.61-6.55h0A6.6,6.6,0,0,1,1331.53,277.05Z" transform="translate(-586.75 -103.39)"/><ellipse class="bbead4e0-6244-46f5-9d98-cfbd42ec8e63" cx="329.07" cy="27.76" rx="5.14" ry="5.11"/><ellipse class="bbead4e0-6244-46f5-9d98-cfbd42ec8e63" cx="403.99" cy="390.88" rx="5.14" ry="5.11"/><ellipse class="bbead4e0-6244-46f5-9d98-cfbd42ec8e63" cx="285.02" cy="265.46" rx="5.14" ry="5.11"/><path class="eac19507-27f8-4702-af9e-51dae83ed413" d="M1045.59,641.86c-3.65-15.81-2.66-31.93,9-48.36A127.44,127.44,0,0,1,1075,571V489.87c-9.65-1-15.81-10.43-15.8-24.56h0c0-5.14,0-13.75.77-23.8h0c.22-5.09.46-10,.64-13.79-.91-.27-1.83-.54-2.72-.85a86.39,86.39,0,0,1-29.66-16.3,63.8,63.8,0,0,1-11.4-12.93,44.67,44.67,0,0,1-6.4-16.5c-2.07-11.38-1.48-22.63-.48-33.62s2.76-21.74,4.53-32.43,3.64-21.14,5.56-31.55,3.76-20.69,6-30.79a142.83,142.83,0,0,1,9.34-29.44,49,49,0,0,1,8.7-13,30.16,30.16,0,0,1,6.55-4.89,68.62,68.62,0,0,1,6.71-3.33,161,161,0,0,1,26.78-8.53,202.11,202.11,0,0,1,25.76-4.42c4.19-.44,8.32-.71,12.4-.74a65.52,65.52,0,0,1,12.19.88,50,50,0,0,1,11,3.63A79.35,79.35,0,0,1,1155,198a124.47,124.47,0,0,1,27,22.91,84,84,0,0,1,13.08,19,46.61,46.61,0,0,1,2.33,5.94l.53,1.95h0l.42,2.14c.15.71.27,1.56.4,2.57s.29,2.21.37,3.63a150.48,150.48,0,0,1,0,19.23l-12.66-8.56L1198.57,283c-.21,2.62-.46,5.43-.73,8.26l-13.19-8.61L1197,299.08c-.27,2.5-.56,5.09-.89,7.73l-13.26-8.31,12.31,16.3c-.31,2.45-.62,4.95-1,7.48l-13.13-7.86,12.11,15.91c-.31,2.39-.62,4.83-1,7.24l-12.91-7.24,11.84,15.41c-.33,2.37-.68,4.78-1,7.25l-12.6-6.76L1189,361c-.37,2.36-.77,4.75-1.17,7.25l-12-6,10.63,13.66c-.45,2.41-.93,4.83-1.46,7.24L1174.05,378l9.38,11.9c-.57,2.21-1.15,4.44-1.83,6.67a92,92,0,0,1-5,13.51,46,46,0,0,1-3.74,6.63c-.4.54-.71,1.07-1.18,1.63s-.93,1.2-1.32,1.6l-.62.65-.31.34-.49.47a15.24,15.24,0,0,1-1.7,1.4,44.55,44.55,0,0,1-14.59,6.19c-1.82.49-3.79.93-5.71,1.32-.64,2.63-1.82,7.25-3,12.32a24.37,24.37,0,0,1-.8,30.58,19.57,19.57,0,0,1-11.77,6.61,27.64,27.64,0,0,1-2.6,3.31c.74,5.29,3.64,10.87,6.69,16.89,5.73,11.17,12.86,25.08,3.36,38.72-6.63,9.49-17.86,16-28.73,22.32l-.39.22V667.77l6.81-28.1c60.39,3.88,106.11,21.94,106.11,43.66V699c0,24.52-58.37,44.41-130.32,44.41S962,723.47,962,699V683.33C962.05,664.42,996.72,648.26,1045.59,641.86Zm9-42.38a52.42,52.42,0,0,0-7.44,21c1.06-2.88,1.83-5.8,3.07-8.64a85.33,85.33,0,0,1,5.6-11.09c3.44-5.94,8-11.21,11.31-17.19A128.05,128.05,0,0,0,1054.6,599.48Zm10,1c-9.44,13.32-10.15,26.39-6.77,40q8.37-.78,17.18-1.18V587.81a110.63,110.63,0,0,0-10.41,12.66Zm2-132.35a43,43,0,0,0,3.65,10.86,43.67,43.67,0,0,1-1.83-10.27,60,60,0,0,1,1.3-12.68c1.22-5.94,2.59-11.82,4-17.71l21,.27c.77,7,1.55,14,2.7,21a58.76,58.76,0,0,0,4.18,14.33,43.74,43.74,0,0,0,6.62,10.09,54.18,54.18,0,0,1-4.63-9.5A55.94,55.94,0,0,1,1101.3,460c-.18-7.1.17-14.2.48-21.3h0c.27-5.78.6-11.39.78-14.49H1067.7c-.13,2.48-.29,6.19-.49,10.4-.51,6.74-1,13.47-1.24,20.21a60.42,60.42,0,0,0,.6,13.3Zm19.34,211.38a1.82,1.82,0,0,0,3.48,0l-.47-80.71q-.33-65.67-.44-131.33V444.7A497.68,497.68,0,0,0,1085,503c-.22,22.46-.25,44.92-.36,67.36q-.2,33.21.4,66.41c.13,9.72.35,19.47.51,29.22,0,3.94.18,7.91.27,11.88a13.21,13.21,0,0,0,.1,1.66Zm-68.45-338.85c3.56,0,7.12,0,10.68.13,4.56.3,9.12.83,13.64,1.39q0-7.44.42-14.92c-3.76.79-7.48,1.61-11.2,2.59-4.31,1.15-8.5,2.66-12.68,4.16C1018,336.23,1017.77,338.44,1017.46,340.67Zm2.07-15c3.64-.16,7.29-.25,10.94-.13,3.94.18,7.84.51,11.75.85.31-4.81.71-9.61,1.2-14.49a226.42,226.42,0,0,0-22.91,7.25c-.31,2.21-.64,4.36-.91,6.52Zm2.44-14.93c7.3-.34,14.37-.29,21.62,0q.72-7.11,1.64-14.2c-7.52,2.27-14.87,4.78-22.17,7.76Zm3.76-21.35v-.15c-.39,2.18-.77,4.33-1.15,6.52,7-.49,13.88-.63,20.85-.52q.91-7.06,1.82-14.08c-7.29,2.47-14.45,5.17-21.52,8.23Zm2.66-15.22-1.2,6.58c6.75-.6,13.46-.93,20.23-1q.93-7.05,2.09-14.06c-7.09,2.72-14.1,5.58-21,8.79C1028.45,274.37,1028.43,274.28,1028.39,274.19Zm1.61-8.44c6.58-.72,13.17-1.21,19.79-1.56.84-4.81,1.82-9.61,2.9-14.38-7.3,3-14.38,6.2-21.42,9.66-.44,2.08-.85,4.16-1.27,6.28Zm4.87-21.74c-.59,2.2-1.13,4.39-1.66,6.6,6.56-.85,13.15-1.51,19.77-2.07,1.24-5.18,2.68-10.32,4.36-15.39-7.57,3.51-15.07,7.08-22.47,10.9Zm114.06-35.95a13.58,13.58,0,0,0-8.45-1c-5,1.52-7,8.11-7.18,12.68,2.66-3,3.81-8.46,7.57-10.33,2.11-1.07,4.89-.54,7.11-.14s4,.74,6,1c0-.44-4.55-2.07-5-2.19Zm-3.37,29.6a68.63,68.63,0,0,0-21-10.07h0c-16.83-1.49-33.63,1.63-50.49,1.39-.67,5.25-1.29,10.51-1.82,15.76a24.23,24.23,0,0,1,4-1.81c2-.8,4.16-1.49,6.26-2.14a123.85,123.85,0,0,1,14.59-3.62,82.77,82.77,0,0,1,25.7-1.36,9.58,9.58,0,0,1,1.83.31A59.51,59.51,0,0,1,1144,241.8a160.75,160.75,0,0,1,20.28,11.71,163.16,163.16,0,0,0-18.69-15.82Zm-17.28,98.21a99.64,99.64,0,0,0-17.47-6.94v-.14c-8.69-1.52-17.55-2.16-26.31-2.87-4.52-.36-9.12-.67-13.59-1-2-.15-4.07-.27-6.09-.44-.15,0-2.19-.25-3.16-.45v.54c-.8,5-1.64,10-2.37,15.09,16.09-5.43,34.19-5.56,50.79-2.53h.27l1.28.12a57.28,57.28,0,0,1,8.62,1.56c11.26,2.85,21.62,7.63,32,12.68a160.6,160.6,0,0,0-23.93-15.69Zm-64-13a55.18,55.18,0,0,1,6.06-1.61,108.41,108.41,0,0,1,39.13-1.44c1.24.19,2.44.42,3.65.67h.91a63.65,63.65,0,0,1,8.33,1.56c11.26,2.68,21.66,7.94,31.87,13.19a150.48,150.48,0,0,0-23.6-16.09h0l-.39-.18.37.18a96.48,96.48,0,0,0-16.95-6.92V312a149.41,149.41,0,0,0-15.23-1.58c-8.48-.67-17-1-25.54-1.45-2.22-.1-4.45-.2-6.67-.38a10.8,10.8,0,0,1-2.12-.36q-1.18,7.65-2.39,15.27a22.8,22.8,0,0,1,2.57-.6Zm0-15.22a82.89,82.89,0,0,1,12.55-3.42,104.47,104.47,0,0,1,31.31-1.65c2.39.24,4.68.6,7,1v-.13a4.66,4.66,0,0,0,.82.13,69.21,69.21,0,0,1,9.13,1.81c11,2.72,21.23,8.17,31.13,13.55A142.71,142.71,0,0,0,1133,302.54c.23.13.4.2-.13,0s-.4-.22-.13,0a92,92,0,0,0-16.42-6.88v-.27a117.28,117.28,0,0,0-15-1.35c-8.81-.45-17.62-.65-26.44-.9-2.29,0-4.61-.13-6.93-.27a5,5,0,0,1-1.62-.33c-.69,5.11-1.44,10.2-2.21,15.29Zm2.87-16.16a88.62,88.62,0,0,1,12.91-3.62,107.83,107.83,0,0,1,30.78-2,53.49,53.49,0,0,1,6.78,1v-.13h0a11.52,11.52,0,0,1,1.83.26c2.82.51,5.58,1,8.37,1.81,10.82,2.77,20.78,8.44,30.39,13.91a139.84,139.84,0,0,0-22.84-16.81c.24.15.4.22-.11,0s-.38-.22-.11,0a87.68,87.68,0,0,0-16.65-7.12,1.4,1.4,0,0,0,0-.29,107.49,107.49,0,0,0-16.62-1.07c-9.41-.25-18.83,0-28.22-.3H1070a5.35,5.35,0,0,1-1.64-.2q-.91,7.61-1.93,15.18a3.2,3.2,0,0,1,.74-.47Zm4.76-16.82a102.48,102.48,0,0,1,13.79-3.63,105.51,105.51,0,0,1,29.35-1.81c1.51.15,3,.37,4.45.64a.54.54,0,0,0,0-.18c.77.19,1.53.32,1.82.38a78.38,78.38,0,0,1,8.85,1.93c10.75,3.05,20.54,8.68,30,14.37a136.86,136.86,0,0,0-22.48-17.17h-.14l-.17-.09a83.32,83.32,0,0,0-17.05-7.36v-.22c-1.64-.16-3.36-.12-5-.41-4.8-.31-9.58-.36-14.38-.35-9.54,0-19.06.47-28.6.33a6,6,0,0,1-2.14-.24q-.88,7.77-1.82,15.51a19.53,19.53,0,0,1,3.48-1.67Zm-1.11-14.49a26.55,26.55,0,0,1,5.47-2.14,128.57,128.57,0,0,1,13.81-3.62,93.36,93.36,0,0,1,28.14-2c1.06.11,2.1.27,3.14.45v-.12a20.76,20.76,0,0,0,2.21.36,40.94,40.94,0,0,1,8.41,1.81c10.94,3.19,20.76,9,30.26,15a132.62,132.62,0,0,0-22.15-17.55l-.14-.09a74.78,74.78,0,0,0-10.09-5.24,77.71,77.71,0,0,0-7.55-2.52v-.16c-1.82-.23-3.79-.25-5.62-.34-5.31-.28-10.65-.15-16,0-5.6.23-11.18.47-16.78.65l-7.3.18a14.7,14.7,0,0,1-4.49,0l-1.82,15.52a1.43,1.43,0,0,1,.49-.21Zm106.12,72.79c2.81-21.73,5.33-43.79,6.19-65.8.27-7,.36-13.91.2-20.89-1.35,19.13-3.74,38.15-6.13,57.17-2.72,21.63-5.05,43.33-8.26,64.88a171.43,171.43,0,0,1-4.64,22.88c8-18.11,10.16-38.73,12.68-58.24Zm-21,23.12c2.26-10.53,4-21.18,5.47-31.83,3-21.55,5.48-43.25,6.7-65,.46-7.82.69-15.69.44-23.55-1.83,18.48-4.16,36.86-6.44,55.29-2.7,21.73-5.16,43.65-8.48,65.37a214.86,214.86,0,0,1-4.86,24.63A146.9,146.9,0,0,0,1155.86,356.05Zm-22.49,64.36c1.48.32,3,.58,4.45.79-12.77-6.83-25.83-19-29.19-32.35-2.71-10.63-2.77-21.88-1.4-34.81q3.36.31,6.68.94c-.3,6.48-.61,13-.39,19.49a42.59,42.59,0,0,0,2.14,12.86,66.08,66.08,0,0,0,3.88,8.73,66.33,66.33,0,0,1-2.59-8.95,42.44,42.44,0,0,1-.31-12.68c.64-6.12,1.83-12.17,2.9-18.22a176.31,176.31,0,0,1,30.72,11.72,226,226,0,0,0-19.1-12.55,102.5,102.5,0,0,0-22.93-9.66h0l-1.4-.27c-8.72-1.45-17.53-2.52-26.34-3.39-7.06-.7-14.21-1-21.25-1.95-.51,3.62-1,7.15-1.32,10.76-.27-2.92-.45-5.82-.47-8.75-.15-21.36,2.86-42.86,5.67-64,2.54-19.13,5.62-38.54,12.15-56.78-.31,2.37-.71,4.74-1,7.12v.39c2.33-1.07,4.76-2,7.19-2.91a120.92,120.92,0,0,1,30.15-6.92,58.39,58.39,0,0,1,14.59,0c.66-3.32,1.37-6.38,2.16-9.06,3.64-12.68,12.07-9.67,21.58-7.75a54.56,54.56,0,0,0-16.75-6.74,51.62,51.62,0,0,0-6.8-.63,19,19,0,0,0-14.6,14.49,21.41,21.41,0,0,1,5.86-14.35c-2.36.13-4.73.29-7.13.54l-2.47.31c-6.66,2.3-10.61,8.82-12.57,15.67a28.94,28.94,0,0,1,4.4-14.15c.12-.19.26-.38.4-.56q-5.33.87-10.78,2.07c-5.47,2.77-9.25,8.57-10.94,14.49a26.94,26.94,0,0,1,3.88-12.88c-3.35.85-6.75,1.81-10.12,2.86-4.87,3.21-7.94,9.44-9.69,14.71a35.53,35.53,0,0,1,3.54-12.68c-2.12.78-4.2,1.59-6.26,2.5l-.62.29a31.66,31.66,0,0,0-10.83,16.08,37.61,37.61,0,0,1,3.39-12.1,20.62,20.62,0,0,0-3.1,2.49,42.31,42.31,0,0,0-7.52,11.32,87.43,87.43,0,0,0-3.64,9.38c6.65-1,13.31-1.81,20.06-2.61q1.66-5,3.65-9.94c-.46,2.33-.91,4.71-1.35,7.06-3.9,21.12-6.09,42.42-9,63.69-1.48,10.87-3.16,21.74-4.88,32.51-1.4,8.73-2.93,17.45-3.73,26.25-.26-2.59-.44-5.18-.48-7.81v-2c-4.45.78-8.86,1.58-13.26,2.61-4,1-7.95,2.25-11.89,3.63-.92,10.48-1.34,21.1.52,31.12a38,38,0,0,0,5.39,13.89,55.39,55.39,0,0,0,4.74,6.16,59.65,59.65,0,0,0,5.47,5.43,72.21,72.21,0,0,0,15.82,10.31c-1.66-1.25-3.3-2.56-4.89-3.93A56.64,56.64,0,0,1,1028.54,391,48.08,48.08,0,0,1,1026,363a49.9,49.9,0,0,0,5.25,25.11,52.67,52.67,0,0,0,15.4,17.62,86.55,86.55,0,0,0,15,8.77c-1.83-1.52-3.74-3.12-5.47-4.82A53.07,53.07,0,0,1,1040.05,363a46.07,46.07,0,0,0,.85,11,58.55,58.55,0,0,0,32.29,39.54c1.63.78,3.25,1.49,4.91,2.19a61.2,61.2,0,0,1-5.11-4.51c-12.9-12.31-19.88-31.77-17-49.32A48.09,48.09,0,0,0,1057,373.4a60.27,60.27,0,0,0,19.43,32.68,99.55,99.55,0,0,0,9.41,6.63,55.45,55.45,0,0,0,8.56,4.25c-1.21-1-2.37-2-3.49-3.13a65.67,65.67,0,0,1-16.25-26.64,56.5,56.5,0,0,1-2.79-26.23,55,55,0,0,0,5.47,25,61.15,61.15,0,0,0,17.91,23.37,54.75,54.75,0,0,0,13.37,7.59c-1.11-1-2.18-2.06-3.22-3.17a68.75,68.75,0,0,1-15.24-27.17c-2.51-8.44-4.1-17.84-2.31-26.59a54.16,54.16,0,0,0,3.77,19.76,76.28,76.28,0,0,0,11.82,21.74,51.46,51.46,0,0,0,18.87,15.27,56.38,56.38,0,0,0,11,3.66Zm-2.75,53.74a18.92,18.92,0,0,1-9.65-5.82,16.63,16.63,0,0,1-4.09-10.37,17.21,17.21,0,0,1,3.65-11.38,19.82,19.82,0,0,1,10-6.29c-10.51-2.21-18.61,7.25-18.88,17a18.68,18.68,0,0,0,5.82,13.21,15,15,0,0,0,13.19,3.64Zm2.53,59.92c5.91-9.06,1.55-20-4.07-28,3.65,7.59,7.94,17.26,3.49,25.45-3.89,8-12,13.38-19.32,18.11a43.58,43.58,0,0,0,19.9-15.54Zm-4.3-2.39c5.09-7.25,1.71-14.76-4.22-26.3a89.66,89.66,0,0,1-6.76-15.62c-.46.15-.94.26-1.39.37l-.55.14c-.69.17-1.4.31-2.13.44l-.66.1c-1,.15-1.93.28-3,.35h-.4V547c7.73-4.53,15-9.44,19.08-15.27ZM1027.92,721.29a294.59,294.59,0,0,0,66.1,6.05,302.65,302.65,0,0,0,47.43-4.16,254,254,0,0,0,36-9.19c-40,8.39-80.81,10-121.49,6.6a275.24,275.24,0,0,1-44.57-7.1c-13.24-3.34-26-7.52-37.79-14.5C989.32,711.06,1008.65,717.22,1027.92,721.29Z" transform="translate(-586.75 -103.39)"/></g><g id="bbdec2d2-f3ec-4ee8-b672-d202b7bdfe3e" data-name="a4c18d45-1264-4870-936e-bfa6628b0455"><path class="b61f9c56-5ba5-46ef-ac5f-74aad7c5e5ac" d="M1059.15,419.63c43.3,54.65,57,124.57,58.48,188.36s-9.87,121.53-39.42,164.81c-29.63,44.06-76.71,73.68-134.44,108.62s-124.56,75.15-173.16,59.25c-47.82-15.95-77.47-88.11-112.41-154.19-35.77-66.08-77.54-126.84-70.71-180.76,6.08-54.65,60.77-103.29,117-155.71,55.44-52.39,113.17-108.6,177-116.13C946,325.46,1016.61,364.94,1059.15,419.63Z" transform="translate(-586.75 -103.39)"/><path class="fd23b097-a659-4aee-8c96-1aa336971e4a" d="M649.15,785.71a34.45,34.45,0,1,0,34.43,34.47v0A34.45,34.45,0,0,0,649.15,785.71Zm0,46.9a12.47,12.47,0,1,1,12.45-12.48h0a12.46,12.46,0,0,1-12.44,12.47Z" transform="translate(-586.75 -103.39)"/><path class="fd23b097-a659-4aee-8c96-1aa336971e4a" d="M649.15,731.57a21.25,21.25,0,1,0,21.24,21.25,21.25,21.25,0,0,0-21.24-21.25Zm0,28.93a7.64,7.64,0,1,0,0-.08Z" transform="translate(-586.75 -103.39)"/><rect class="b8f07d92-f8ba-4191-a20a-fab598015986" x="18.16" y="617.2" width="88.47" height="144.01" rx="6.73"/><path class="fd23b097-a659-4aee-8c96-1aa336971e4a" d="M1069.3,785.71a34.45,34.45,0,1,0,34.43,34.47v0A34.45,34.45,0,0,0,1069.3,785.71Zm0,46.9a12.47,12.47,0,1,1,12.45-12.48h0a12.45,12.45,0,0,1-12.43,12.47Z" transform="translate(-586.75 -103.39)"/><path class="fd23b097-a659-4aee-8c96-1aa336971e4a" d="M1069.3,731.57a21.25,21.25,0,1,0,21.24,21.25,21.25,21.25,0,0,0-21.24-21.25Zm0,28.93a7.64,7.64,0,1,0,0-.08Z" transform="translate(-586.75 -103.39)"/><rect class="b8f07d92-f8ba-4191-a20a-fab598015986" x="438.31" y="617.2" width="88.47" height="144.01" rx="6.73"/><line class="bbead4e0-6244-46f5-9d98-cfbd42ec8e63" x1="143.93" y1="283.45" x2="143.93" y2="305.92"/><line class="bbead4e0-6244-46f5-9d98-cfbd42ec8e63" x1="155.17" y1="294.69" x2="132.69" y2="294.69"/><line class="bbead4e0-6244-46f5-9d98-cfbd42ec8e63" x1="94.76" y1="421.15" x2="94.76" y2="436.61"/><line class="bbead4e0-6244-46f5-9d98-cfbd42ec8e63" x1="102.48" y1="428.87" x2="87.02" y2="428.87"/><line class="bbead4e0-6244-46f5-9d98-cfbd42ec8e63" x1="434.81" y1="272.21" x2="434.81" y2="287.67"/><line class="bbead4e0-6244-46f5-9d98-cfbd42ec8e63" x1="442.53" y1="279.93" x2="427.08" y2="279.93"/><line class="bbead4e0-6244-46f5-9d98-cfbd42ec8e63" x1="342.06" y1="633.34" x2="342.06" y2="648.8"/><line class="bbead4e0-6244-46f5-9d98-cfbd42ec8e63" x1="349.79" y1="641.06" x2="334.34" y2="641.06"/><line class="bbead4e0-6244-46f5-9d98-cfbd42ec8e63" x1="417.24" y1="408.5" x2="417.24" y2="426.77"/><line class="bbead4e0-6244-46f5-9d98-cfbd42ec8e63" x1="426.38" y1="417.64" x2="408.1" y2="417.64"/><line class="bbead4e0-6244-46f5-9d98-cfbd42ec8e63" x1="462.91" y1="280.63" x2="462.91" y2="298.9"/><line class="bbead4e0-6244-46f5-9d98-cfbd42ec8e63" x1="472.04" y1="289.77" x2="453.77" y2="289.77"/><path class="bbead4e0-6244-46f5-9d98-cfbd42ec8e63" d="M647.83,469a6.34,6.34,0,1,1-6.35-6.32h0A6.34,6.34,0,0,1,647.83,469Z" transform="translate(-586.75 -103.39)"/><path class="bbead4e0-6244-46f5-9d98-cfbd42ec8e63" d="M976.6,710a6.34,6.34,0,1,1-6.36-6.32h0A6.34,6.34,0,0,1,976.6,710Z" transform="translate(-586.75 -103.39)"/><path class="bbead4e0-6244-46f5-9d98-cfbd42ec8e63" d="M1079.17,500a6.34,6.34,0,1,1-6.35-6.32h0A6.34,6.34,0,0,1,1079.17,500Z" transform="translate(-586.75 -103.39)"/><circle class="bbead4e0-6244-46f5-9d98-cfbd42ec8e63" cx="94.76" cy="256.04" r="4.92"/><circle class="bbead4e0-6244-46f5-9d98-cfbd42ec8e63" cx="166.42" cy="605.93" r="4.92"/><circle class="bbead4e0-6244-46f5-9d98-cfbd42ec8e63" cx="52.59" cy="485.1" r="4.92"/><path class="fd23b097-a659-4aee-8c96-1aa336971e4a" d="M805.65,851.52c-3.41-15.24-2.56-30.74,8.54-46.58a122.63,122.63,0,0,1,19.52-21.69V705.08c-9.22-.93-15.11-10.06-15.11-23.67h0c0-4.95,0-13.23.73-22.93h0c.21-4.91.43-9.64.6-13.27-.87-.28-1.71-.53-2.59-.82A83.08,83.08,0,0,1,789,628.71a61.47,61.47,0,0,1-5.87-5.88,60.59,60.59,0,0,1-5-6.59,42.76,42.76,0,0,1-6.14-15.88c-2-11-1.41-21.83-.46-32.45s2.75-21.06,4.46-31.31,3.42-20.39,5.23-30.47,3.6-19.93,5.77-29.66a140.76,140.76,0,0,1,8.91-28.37,47.81,47.81,0,0,1,8.36-12.5A28.38,28.38,0,0,1,810.4,431a65.14,65.14,0,0,1,6.42-3.21,153.85,153.85,0,0,1,25.62-8.23,192.42,192.42,0,0,1,24.65-4.25c4-.41,8-.69,11.95-.72a64.25,64.25,0,0,1,11.67.85,47.63,47.63,0,0,1,10.59,3.42,74.94,74.94,0,0,1,9.08,4.9,119.75,119.75,0,0,1,25.84,22.1,79.76,79.76,0,0,1,12.5,18.27,43.33,43.33,0,0,1,2.24,5.73l.51,1.89h0l.4,2.07c.15.66.27,1.5.39,2.47s.27,2.14.36,3.42a146.88,146.88,0,0,1,0,18.53L940.51,490l11.63,15.63c-.21,2.53-.43,5.12-.7,8l-12.62-8.3,11.85,15.85c-.26,2.4-.55,4.9-.85,7.44l-12.69-8,11.78,15.66c-.31,2.36-.6,4.77-.9,7.21l-12.57-7.57L947,551.21c-.31,2.32-.6,4.67-.92,7.07l-12.37-7.09,11.35,14.86c-.33,2.29-.65,4.61-1,7l-12.06-6.53L943,580.68c-.36,2.29-.72,4.58-1.11,6.83l-11.5-5.8,10.25,13.15c-.44,2.32-.9,4.68-1.4,7L928.72,597l9,11.48c-.51,2.13-1.09,4.27-1.71,6.42a91.35,91.35,0,0,1-4.76,13,47,47,0,0,1-3.59,6.38c-.38.53-.68,1-1.13,1.57s-.88,1.15-1.26,1.54l-.58.63-.31.33-.46.46a17.19,17.19,0,0,1-1.71,1.35,42.77,42.77,0,0,1-14,6c-1.8.48-3.63.89-5.45,1.26-.62,2.55-1.71,7-2.89,11.87a23.37,23.37,0,0,1,4.77,14.16,23.11,23.11,0,0,1-5.55,15.37,18.76,18.76,0,0,1-11.26,6.37,28.34,28.34,0,0,1-2.49,3.18c.71,5.12,3.41,10.55,6.4,16.27,5.48,10.78,12.31,24.17,3.21,37.32-6.33,9.16-17.08,15.37-27.49,21.49l-.35.2V876.4l6.49-27.07c57.8,3.72,101.54,21.14,101.54,42.07v15.06c0,23.65-55.83,42.82-124.68,42.82s-124.67-19.17-124.67-42.82V891.4C725.71,873.33,758.84,857.7,805.65,851.52Zm8.63-40.86a50.57,50.57,0,0,0-7.12,20.28c1-2.77,1.82-5.59,2.92-8.34a85.25,85.25,0,0,1,5.38-10.67c3.28-5.72,7.63-10.8,10.81-16.57A124.63,124.63,0,0,0,814.28,810.66Zm9.51,1c-9,12.82-9.7,25.41-6.49,38.54,5.35-.49,10.85-.89,16.45-1.14V799.44a109.5,109.5,0,0,0-10,12.22Zm1.93-127.55a41.22,41.22,0,0,0,3.42,10.44,43.07,43.07,0,0,1-1.71-9.87,57.89,57.89,0,0,1,1.25-12.18c1.16-5.72,2.47-11.39,3.82-17.08l20,.27c.74,6.75,1.47,13.49,2.58,20.19a56.71,56.71,0,0,0,4,13.8,41.94,41.94,0,0,0,6.33,9.73,54.47,54.47,0,0,1-4.39-9.18,55.11,55.11,0,0,1-2.1-13.92c-.17-6.83.16-13.67.47-20.5h0c.25-5.57.56-11,.73-14H826.81c-.11,2.41-.29,6-.47,10-.48,6.49-1,13-1.2,19.47a59.15,59.15,0,0,0,.58,12.82Zm18.52,203.68a1.71,1.71,0,1,0,3.41,0l-.49-77.65q-.33-63.28-.43-126.54V661.55a483.59,483.59,0,0,0-3.42,56.16c-.22,21.63-.24,43.27-.36,64.89-.12,21.32,0,42.7.38,64,.14,9.38.34,18.79.5,28.17,0,3.81.17,7.61.27,11.44A6.42,6.42,0,0,1,844.24,887.79Zm-65.5-326.47c3.41,0,6.83,0,10.25.12,4.37.3,8.69.82,13,1.36q0-7.2.41-14.4c-3.58.77-7.15,1.56-10.7,2.51-4.14,1.11-8.13,2.55-12.15,4Q779.13,558.12,778.74,561.32Zm2-14.44c3.42-.15,7-.23,10.5-.12,3.76.18,7.5.48,11.24.82q.43-7,1.15-13.9a209.92,209.92,0,0,0-21.92,7Zm2.34-14.38c6.83-.32,13.66-.29,20.66,0,.48-4.57,1-9.15,1.59-13.66-7.19,2.17-14.22,4.61-21.21,7.48-.36,2-.7,4.12-1,6.18ZM786.65,512v-.15c-.36,2.08-.74,4.18-1.1,6.26,6.66-.44,13.29-.58,20-.49.58-4.53,1.18-9.05,1.71-13.56-7,2.32-13.78,4.9-20.56,7.87Zm2.56-14.67c-.4,2.1-.77,4.22-1.16,6.34,6.45-.59,12.89-.89,19.36-1q.87-6.84,2-13.55c-6.83,2.62-13.49,5.38-20.13,8.46,0-.14-.06-.22-.07-.31Zm1.53-8.15c6.31-.68,12.59-1.16,18.93-1.48.8-4.65,1.71-9.28,2.78-13.87-6.83,2.92-13.66,6-20.49,9.31-.41,1.93-.82,4-1.22,5.91Zm4.65-20.88q-.85,3.13-1.59,6.35c6.3-.82,12.59-1.47,18.93-2a150.58,150.58,0,0,1,4.16-14.84c-7.24,3.29-14.41,6.73-21.5,10.42Zm109.13-34.66a12.92,12.92,0,0,0-8.08-1c-4.81,1.49-6.67,7.83-6.83,12.34,2.57-2.92,3.66-8.17,7.26-10,2-1,4.68-.51,6.83-.14s3.79.74,5.71,1c-.09-.6-4.43-2.12-4.89-2.29Zm-3.22,28.51a65.49,65.49,0,0,0-20-9.69h0C865.16,451,849.09,454,833,453.82c-.64,5.13-1.25,10.11-1.83,15.17.7-.43,3.57-1.71,3.86-1.81,2-.79,4-1.44,6-2.07a116.92,116.92,0,0,1,13.93-3.41,78.78,78.78,0,0,1,24.6-1.32c.59.09,1.21.19,1.81.31a56.32,56.32,0,0,1,18.42,5.48,151.92,151.92,0,0,1,19.47,11.36,157.39,157.39,0,0,0-17.89-15.44Zm-16.54,94.63A96.56,96.56,0,0,0,868,550.11V550c-8.3-1.46-16.79-2.09-25.17-2.75-4.32-.36-8.66-.65-13-1-1.95-.13-3.89-.25-5.84-.41-.14,0-2.09-.25-3-.44a1.27,1.27,0,0,1-.08.53c-.77,4.83-1.57,9.66-2.27,14.53,15.37-5.26,32.72-5.36,48.58-2.44h.28l1.21.12a52.28,52.28,0,0,1,8.25,1.5c10.79,2.75,20.7,7.35,30.64,12.23a152.22,152.22,0,0,0-22.9-15.13ZM823.5,544.24a58.19,58.19,0,0,1,5.79-1.56,105.5,105.5,0,0,1,12.84-2,104,104,0,0,1,24.62.65c1.17.19,2.33.41,3.41.65H871a63.66,63.66,0,0,1,8,1.48c10.77,2.6,20.71,7.66,30.48,12.71a143.18,143.18,0,0,0-22.56-15.49h0l-.36-.17.34.17a91.83,91.83,0,0,0-16.2-6.66v-.24c-4.8-.87-9.77-1.13-14.57-1.52-8.13-.63-16.28-1-24.42-1.38-2.12-.12-4.27-.21-6.39-.38a9.26,9.26,0,0,1-2-.34c-.74,4.9-1.51,9.8-2.27,14.7a20.9,20.9,0,0,1,2.47-.66Zm0-14.67a79.93,79.93,0,0,1,12-3.3,99.7,99.7,0,0,1,29.95-1.59,64.9,64.9,0,0,1,6.66,1v-.12l.79.1a62.19,62.19,0,0,1,8.76,1.71c10.56,2.61,20.31,7.87,29.79,13.05a138.6,138.6,0,0,0-22.21-15.82h-.12c-.56-.31-.39-.2-.12,0A89.57,89.57,0,0,0,873.22,518v-.26a112.85,112.85,0,0,0-14.33-1.28c-8.42-.44-16.86-.63-25.28-.89-2.22,0-4.42-.1-6.64-.25a4.66,4.66,0,0,1-1.56-.31q-1,7.38-2.1,14.72ZM826.25,514a85.27,85.27,0,0,1,12.35-3.42,103.11,103.11,0,0,1,29.37-2,52.3,52.3,0,0,1,6.49.94v-.12h0a11.94,11.94,0,0,1,1.81.24c2.72.49,5.37,1,8,1.71,10.37,2.66,19.9,8.13,29,13.39a133.37,133.37,0,0,0-21.84-16.19c.23.13.37.2-.11,0s-.37-.21-.1,0a83.94,83.94,0,0,0-15.93-6.83v-.3a104.5,104.5,0,0,0-15.9-1c-9-.22-18,0-27-.29H829a4.84,4.84,0,0,1-1.56-.19c-.59,4.89-1.19,9.75-1.86,14.62a4.57,4.57,0,0,1,.69-.63Zm4.56-16.23A101.74,101.74,0,0,1,844,494.26a99.42,99.42,0,0,1,28.12-1.79,38.35,38.35,0,0,1,4.26.62.6.6,0,0,0,0-.19c.73.2,1.47.32,1.71.37a74.94,74.94,0,0,1,8.53,1.87c10.25,2.92,19.65,8.35,28.73,13.83a131,131,0,0,0-21.5-16.53c.2.12.31.17-.14-.09s-.41-.22-.17,0a79.31,79.31,0,0,0-16.31-7.1v-.19c-1.57-.17-3.21-.14-4.75-.41-4.59-.29-9.17-.34-13.74-.34-9.12,0-18.24.46-27.33.32a5.81,5.81,0,0,1-2-.22q-.87,7.47-1.71,14.94a18.74,18.74,0,0,1,3.18-1.64Zm-1.07-14a26.44,26.44,0,0,1,5.24-2,116,116,0,0,1,13.22-3.54,88.84,88.84,0,0,1,26.91-1.9c1,.11,2,.24,3,.43v-.12a18.37,18.37,0,0,0,2.1.34,38.36,38.36,0,0,1,8.06,1.8c10.44,3.09,19.85,8.66,29,14.46A127.56,127.56,0,0,0,896,476.31c.21.11.31.18-.11-.08a70.92,70.92,0,0,0-9.67-5.12c-2.38-.94-4.77-1.71-7.23-2.41a.43.43,0,0,0,0-.16c-1.7-.22-3.62-.23-5.38-.34-5.12-.25-10.24-.13-15.26,0-5.35.22-10.71.46-16.06.63-2.32,0-4.66.14-7,.18a14.69,14.69,0,0,1-4.29,0c-.58,5-1.14,9.95-1.7,14.94a1.7,1.7,0,0,1,.44-.24ZM931.34,554c2.7-21,5.12-42.2,5.94-63.41q.38-10.08.17-20.12c-1.28,18.43-3.55,36.76-5.86,55.08-2.59,20.84-4.83,41.76-7.9,62.53a167.25,167.25,0,0,1-4.46,22C926.79,592.43,928.91,572.74,931.34,554Zm-20.16,22.21c2.17-10.13,3.86-20.38,5.26-30.64,2.84-20.79,5.21-41.69,6.41-62.63.44-7.55.66-15.11.41-22.68-1.71,17.8-4,35.52-6.15,53.27-2.6,21-4.94,42.06-8.13,63a199.45,199.45,0,0,1-4.63,23.74,142.23,142.23,0,0,0,6.8-24Zm-21.52,62c1.42.3,2.84.54,4.27.75-12.19-6.56-24.71-18.31-28-31.15-2.61-10.25-2.65-21.1-1.35-33.56,2.15.22,4.29.53,6.39.9-.28,6.27-.58,12.52-.36,18.79a41.81,41.81,0,0,0,2,12.4,66.21,66.21,0,0,0,3.72,8.4,64.34,64.34,0,0,1-2.49-8.62,41.37,41.37,0,0,1-.29-12.22c.62-5.89,1.71-11.73,2.78-17.55a169.05,169.05,0,0,1,29.33,11.25,217.86,217.86,0,0,0-18.28-12.09,97.47,97.47,0,0,0-21.94-9.29v-.09l-1.35-.25c-8.35-1.4-16.79-2.43-25.21-3.28-6.83-.67-13.66-1-20.34-1.88-.48,3.42-.94,6.83-1.25,10.37-.27-2.8-.44-5.6-.46-8.42-.13-20.5,2.75-41.3,5.43-61.66,2.43-18.42,5.38-37.16,11.63-54.65-.29,2.29-.7,4.58-1,6.83v.38c2.25-1,4.56-2,6.83-2.8a115.72,115.72,0,0,1,28.85-6.7,56.7,56.7,0,0,1,14,0c.63-3.19,1.31-6.15,2.07-8.81,3.41-12.3,11.54-9.31,20.63-7.46a51,51,0,0,0-16-6.49,47.34,47.34,0,0,0-6.52-.63,18.32,18.32,0,0,0-14,13.95,20.75,20.75,0,0,1,5.62-13.85c-2.26.13-4.53.29-6.83.53l-2.36.3c-6.37,2.21-10.14,8.54-11.95,15.1a27.86,27.86,0,0,1,4.18-13.49l.38-.55q-5.13.86-10.25,2c-5.31,2.67-8.85,8.25-10.47,14a26.15,26.15,0,0,1,3.72-12.4c-3.21.82-6.45,1.71-9.66,2.75-4.67,3.09-7.62,9.09-9.3,14.16A35,35,0,0,1,825.38,431c-2,.75-4,1.55-6,2.42l-.6.27a30.74,30.74,0,0,0-10.36,15.51,36.44,36.44,0,0,1,3.24-11.66,18.81,18.81,0,0,0-2.95,2.39,41,41,0,0,0-7.19,10.89,88.85,88.85,0,0,0-3.57,9q9.56-1.42,19.16-2.5c1.08-3.22,2.24-6.43,3.54-9.59-.43,2.27-.87,4.54-1.3,6.83-3.72,20.36-5.83,40.88-8.54,61.38-1.4,10.45-3,20.89-4.66,31.32-1.34,8.4-2.8,16.81-3.57,25.29-.24-2.51-.43-5-.46-7.53v-1.94c-4.27.73-8.54,1.5-12.69,2.51-3.86.94-7.62,2.15-11.38,3.41-.89,10.1-1.28,20.34.5,30a36.8,36.8,0,0,0,5.12,13.39,56.86,56.86,0,0,0,4.54,5.94,58,58,0,0,0,5.28,5.24,68.38,68.38,0,0,0,15.12,9.94c-1.59-1.21-3.15-2.46-4.67-3.79a54.19,54.19,0,0,1-14.56-19.91A46.58,46.58,0,0,1,787,582.9a48.36,48.36,0,0,0,5,24.2A50.56,50.56,0,0,0,806.66,624,81.32,81.32,0,0,0,821,632.41c-1.82-1.45-3.58-3-5.31-4.62a51.44,51.44,0,0,1-15.37-45,44.88,44.88,0,0,0,.82,10.66A56.37,56.37,0,0,0,832,631.54q2.32,1.13,4.68,2.12c-1.71-1.37-3.3-2.82-4.89-4.34-12.33-11.87-19-30.62-16.27-47.53a46.13,46.13,0,0,0,1,11A56.39,56.39,0,0,0,827.16,616a53.87,53.87,0,0,0,7.82,8.3,96.71,96.71,0,0,0,9,6.4,54.83,54.83,0,0,0,8.18,4.1c-1.15-1-2.27-2-3.42-3A63.12,63.12,0,0,1,833.2,606.2a54.71,54.71,0,0,1-2.68-25.28,53.65,53.65,0,0,0,5.12,24.1,58.77,58.77,0,0,0,17.08,22.51,51.33,51.33,0,0,0,12.8,7.33c-1.08-1-2.11-2-3.1-3.06a66.12,66.12,0,0,1-14.56-26.23c-2.41-8.15-3.93-17.2-2.24-25.62A52.92,52.92,0,0,0,849.24,599a74.11,74.11,0,0,0,11.31,20.89,49.36,49.36,0,0,0,18.05,14.72,53.5,53.5,0,0,0,11,3.53Zm-2.73,51.75a18.28,18.28,0,0,1-9.24-5.61,16.36,16.36,0,0,1-3.91-10,16.63,16.63,0,0,1,3.52-11,18.61,18.61,0,0,1,9.51-6.06c-10.06-2.12-17.79,7-18,16.37a18.05,18.05,0,0,0,5.55,12.73A14.27,14.27,0,0,0,886.93,689.94Zm2.43,57.72c5.65-8.73,1.5-19.28-3.88-27,3.5,7.29,7.58,16.61,3.31,24.51-3.7,7.73-11.49,12.91-18.46,17.42,7.53-3.18,14.64-8.07,19.1-15Zm-4.12-2.29c4.87-7,1.71-14.24-4-25.36a85.38,85.38,0,0,1-6.47-15c-.43.14-.89.24-1.33.36l-.53.14c-.65.15-1.34.29-2,.41l-.63.1c-.9.14-1.86.26-2.85.34H867v53.8c7.46-4.42,14.42-9.14,18.31-14.76ZM788.68,928.12a281.06,281.06,0,0,0,63.19,5.82,285.8,285.8,0,0,0,45.33-4,242.55,242.55,0,0,0,34.48-8.85c-38.26,8.09-77.32,9.61-116.24,6.35a262.29,262.29,0,0,1-42.7-6.83c-12.67-3.21-24.88-7.24-36.15-14,15.23,11.58,33.73,17.53,52.16,21.45Z" transform="translate(-586.75 -103.39)"/></g></svg>